<?xml version="1.0" encoding="UTF-8" standalone="no"?>
<!-- Created with Inkscape (http://www.inkscape.org/) -->

<svg
   version="1.1"
   id="svg2"
   xml:space="preserve"
   width="1287.5289"
   height="283.54114"
   viewBox="0 0 1287.5289 283.54114"
   sodipodi:docname="FAPESP_white.svg"
   inkscape:version="1.1.2 (0a00cf5339, 2022-02-04)"
   xmlns:inkscape="http://www.inkscape.org/namespaces/inkscape"
   xmlns:sodipodi="http://sodipodi.sourceforge.net/DTD/sodipodi-0.dtd"
   xmlns="http://www.w3.org/2000/svg"
   xmlns:svg="http://www.w3.org/2000/svg"><sodipodi:namedview
     id="namedview13"
     pagecolor="#ffffff"
     bordercolor="#666666"
     borderopacity="1.0"
     inkscape:pageshadow="2"
     inkscape:pageopacity="0.0"
     inkscape:pagecheckerboard="0"
     showgrid="false"
     inkscape:zoom="1.0263975"
     inkscape:cx="644"
     inkscape:cy="141.75794"
     inkscape:window-width="1535"
     inkscape:window-height="1053"
     inkscape:window-x="0"
     inkscape:window-y="0"
     inkscape:window-maximized="0"
     inkscape:current-layer="svg2" /><defs
     id="defs6" /><g
     id="g8"
     transform="matrix(1.3333333,0,0,-1.3333333,0,283.99999)"><g
       id="g10"
       transform="scale(0.1)"><path
         d="m 1558.52,1101.09 c 71.91,242 143.82,484.11 219.45,726.21 C 1607.7,2005.12 1422.38,2130 1199.26,2130 972.23,2130 714.961,2005.12 435,1827.3 363.16,1585.2 291.289,1343.12 219.449,1101.09 143.871,858.98 71.9102,616.801 0,371.02 c 276.129,173.941 533.398,291.25 756.68,291.25 226.871,0 412.5,-117.309 582.54,-291.25 71.76,245.781 147.34,487.96 219.3,730.07"
         style="fill:#ffffff;fill-opacity:1;fill-rule:nonzero;stroke:none"
         id="path12" /><path
         d="m 6173.48,813.52 c 39.49,54.96 68.94,116.441 86.99,181.64 52.97,170.19 34.06,298.82 -52.85,382.07 -7.5,11.32 -19.07,18.82 -34.14,30 -83.25,60.5 -230.71,94.57 -431.25,94.57 H 5208.91 L 4777.5,38.0898 v -3.75 h 503.24 l 143.79,487.9612 h 102.15 c 45.35,0 90.74,3.75 136.21,7.5 128.52,18.91 241.99,56.679 340.39,120.98 67.19,42.11 125.12,97.457 170.2,162.66 m -378.25,211.949 c -11.95,-51.249 -44.88,-95.16 -90.74,-121.05 -12.77,-8.481 -26.83,-14.852 -41.6,-18.871 -37.5,-15 -83.28,-22.5 -140.04,-22.5 l 94.65,325.041 h 45.47 c 52.85,-3.75 94.49,-15 117.19,-41.64 26.48,-26.41 30,-68.01 15,-120.98"
         style="fill:#ffffff;fill-opacity:1;fill-rule:nonzero;stroke:none"
         id="path14" /><path
         d="m 3646.64,787.109 41.64,147.539 h -340.43 l 60.43,211.722 h 389.57 l 106.06,355.66 h -882 l 91.41,321.52 H 1785.51 L 3008.55,1493.4 2681.99,370.941 H 1327.81 L 2583.67,34.3398 h 499.34 L 3245.7,586.641 h 340.43 z"
         style="fill:#ffffff;fill-opacity:1;fill-rule:nonzero;stroke:none"
         id="path16" /><path
         d="m 9574.22,1377.23 c -83.28,83.16 -242.11,124.8 -468.99,124.8 H 8571.84 L 8272.97,480.66 8140.59,34.3398 h 503 l 143.87,487.9612 h 102.15 c 45,0 90.74,3.75 136.13,7.5 128.67,18.91 242.07,56.679 340.39,120.98 132.39,83.321 219.46,196.797 261.1,344.34 52.5,170.149 33.98,298.789 -53.01,382.029 m -416.13,-351.84 c -18.95,-56.759 -45,-94.572 -90.75,-121.048 -12.77,-8.481 -26.83,-14.852 -41.6,-18.871 -37.5,-15 -83.28,-22.5 -140.04,-22.5 l 94.65,325.269 h 45 c 52.93,-3.75 94.57,-15 117.23,-41.64 26.56,-26.4 30,-68 15,-120.97"
         style="fill:#ffffff;fill-opacity:1;fill-rule:nonzero;stroke:none"
         id="path18" /><path
         d="m 8182.5,703.789 c -26.56,64.371 -102.15,143.871 -223.12,242.191 0,3.75 -3.91,3.75 -11.49,11.321 -68.01,52.929 -98.24,98.319 -86.91,136.219 8.47,27.53 27.46,50.62 52.89,64.25 29.96,17.15 63.86,26.29 98.4,26.49 45.43,0 86.99,-11.41 136.17,-30 43.55,-20.43 85.27,-44.42 124.8,-71.8 4.49,-6.95 11.17,-12.23 18.99,-15 l 109.57,378.32 c -41.53,19.61 -84.53,36.06 -128.56,49.18 -22.5,3.75 -41.6,11.25 -60.51,15 -63.2,14.96 -127.96,22.5 -192.89,22.5 -162.69,0 -306.48,-41.6 -431.32,-121.09 -128.79,-79.53 -208.52,-181.76 -246.02,-306.53 -18.91,-71.87 -18.91,-139.961 3.83,-200.5 26.48,-64.34 98.4,-151.328 215.7,-264.731 -0.08,-2.109 1.56,-3.828 3.67,-3.828 64.34,-68.121 94.65,-117.301 83.17,-151.293 -8.32,-32.769 -30.35,-60.386 -60.51,-75.738 -31.64,-20 -68.4,-30.43 -105.82,-30 -45,0 -94.57,15 -147.54,37.5 -40.7,19.84 -79.92,42.621 -117.3,68.16 -17.97,10.32 -34.5,22.93 -49.18,37.5 l -120.98,-405 c 53.63,-32.6092 110.7,-59.2498 170.16,-79.41 3.75,-3.75 11.4,-3.75 15,-7.5 65.58,-16.4805 132.85,-25.39062 200.46,-26.55859 185.43,0 344.34,45.53909 480.47,132.45659 136.14,86.911 227.03,200.551 268.64,344.262 26.48,86.988 22.5,158.899 0,223.121"
         style="fill:#ffffff;fill-opacity:1;fill-rule:nonzero;stroke:none"
         id="path20" /><path
         d="m 6676.64,412.578 60.47,204.223 h 348.01 l 102.22,340.5 h -351.91 l 56.76,189.069 h 385.9 l 105.82,355.66 H 6491.25 L 6173.48,423.91 6063.75,34.3398 h 888.98 l 113.48,378.2382 z"
         style="fill:#ffffff;fill-opacity:1;fill-rule:nonzero;stroke:none"
         id="path22" /><path
         d="M 4777.5,1502.03 H 4214.02 L 3646.64,491.988 3389.41,34.4883 h 488.09 l 102.15,215.5507 h 298.87 L 4252.03,34.4883 H 4740 L 4777.5,1475.7 Z M 4316.25,545.039 H 4115.7 l 128.64,272.461 128.55,272.34 z"
         style="fill:#ffffff;fill-opacity:1;fill-rule:nonzero;stroke:none"
         id="path24" /></g></g></svg>
